<svg width="49" height="30" viewBox="0 0 49 30" fill="none" xmlns="http://www.w3.org/2000/svg">
<path d="M31.8087 3.7251H29.7108C27.3037 3.7251 26.0339 4.99489 26.0339 7.40197V9.49989C26.0339 11.907 27.3037 13.1768 29.7108 13.1768H31.8087C34.2158 13.1768 35.4856 11.907 35.4856 9.49989V7.40197C35.4856 4.99489 34.2158 3.7251 31.8087 3.7251Z" fill="white"/>
<path d="M31.8087 16.3453H29.7108C27.3037 16.3453 26.0339 17.6151 26.0339 20.0222V22.1201C26.0339 24.5272 27.3037 25.797 29.7108 25.797H31.8087C34.2158 25.797 35.4856 24.5272 35.4856 22.1201V20.0222C35.4856 17.6151 34.2158 16.3453 31.8087 16.3453Z" fill="white"/>
<path d="M19.1877 16.3453H17.0898C14.6716 16.3453 13.4019 17.6151 13.4019 20.0222V22.1201C13.4019 24.5383 14.6716 25.808 17.0787 25.808H19.1766C21.5837 25.808 22.8535 24.5383 22.8535 22.1312V20.0333C22.8646 17.6151 21.5948 16.3453 19.1877 16.3453Z" fill="white"/>
<path d="M11.9263 3.38757L7.09624 7.13112C6.99568 7.21424 6.91453 7.31957 6.85876 7.43933C6.803 7.55909 6.77405 7.69023 6.77405 7.82306C6.77405 7.95589 6.803 8.08702 6.85876 8.20678C6.91453 8.32654 6.99568 8.43187 7.09624 8.51499L11.9263 12.2585M11.2719 7.82306L17.0921 3.38757V6.04886C21.3367 6.04886 22.2579 10.2981 22.2579 14.0327C22.2579 14.0327 20.7684 9.59725 17.0921 9.59725V12.2585L11.2719 7.82306Z" stroke="white" stroke-width="1.16129" stroke-linecap="round" stroke-linejoin="round"/>
</svg>
