<svg width="49" height="30" viewBox="0 0 49 30" fill="none" xmlns="http://www.w3.org/2000/svg">
<path d="M19.1876 3.7251H17.0897C14.6715 3.7251 13.4017 4.99489 13.4017 7.40197V9.49989C13.4017 11.907 14.6715 13.1768 17.0786 13.1768H19.1765C21.5836 13.1768 22.8534 11.907 22.8534 9.49989V7.40197C22.8645 4.99489 21.5947 3.7251 19.1876 3.7251Z" fill="white"/>
<path d="M31.8087 3.7251H29.7108C27.3037 3.7251 26.0339 4.99489 26.0339 7.40197V9.49989C26.0339 11.907 27.3037 13.1768 29.7108 13.1768H31.8087C34.2158 13.1768 35.4856 11.907 35.4856 9.49989V7.40197C35.4856 4.99489 34.2158 3.7251 31.8087 3.7251Z" fill="white"/>
<path d="M31.8087 16.3453H29.7108C27.3037 16.3453 26.0339 17.6151 26.0339 20.0222V22.1201C26.0339 24.5272 27.3037 25.797 29.7108 25.797H31.8087C34.2158 25.797 35.4856 24.5272 35.4856 22.1201V20.0222C35.4856 17.6151 34.2158 16.3453 31.8087 16.3453Z" fill="white"/>
<path d="M19.1876 16.3453H17.0897C14.6715 16.3453 13.4017 17.6151 13.4017 20.0222V22.1201C13.4017 24.5383 14.6715 25.808 17.0786 25.808H19.1765C21.5836 25.808 22.8534 24.5383 22.8534 22.1312V20.0333C22.8645 17.6151 21.5947 16.3453 19.1876 16.3453Z" fill="white"/>
</svg>
