<svg width="20" height="20" viewBox="0 0 20 20" fill="none" xmlns="http://www.w3.org/2000/svg">
<path d="M9.15533 0.714722C9.39415 0.714873 9.58774 0.901918 9.58795 1.13269C9.58795 1.3635 9.39427 1.55148 9.15533 1.55164H7.20905V2.99011H7.25885C7.75974 2.99011 8.16608 3.39936 8.16608 3.90417V5.06824C9.98078 5.14585 11.4278 6.64512 11.4278 8.48425L11.4288 16.7587C11.4286 17.5537 10.7852 18.1981 9.99225 18.1981H3.57819C2.78548 18.198 2.14281 17.5536 2.14264 16.7587V8.48425C2.14264 6.67322 3.54657 5.19189 5.32233 5.07312V3.90417C5.32233 3.39936 5.72836 2.99011 6.22955 2.99011H6.27936V1.55164H5.08502C4.84643 1.55143 4.65281 1.36409 4.6524 1.13367C4.6524 0.902463 4.84613 0.714927 5.08502 0.714722H9.15533ZM3.79694 8.46472C3.63048 8.46472 3.49518 8.60052 3.49518 8.76746V12.6942C3.49518 12.8611 3.63048 12.996 3.79694 12.996H9.78424C9.9507 12.996 10.086 12.8611 10.086 12.6942V8.76746C10.086 8.60052 9.9507 8.46472 9.78424 8.46472H3.79694Z" fill="#1D1D1D"/>
<path fill-rule="evenodd" clip-rule="evenodd" d="M17.9947 4.28528H11.8284C11.6209 4.28528 11.4431 4.46312 11.4431 4.67064V5.2784H18.3949V4.67064C18.3949 4.46313 18.217 4.28528 17.9947 4.28528ZM16.8535 16.2519H12.97L11.4284 5.46106H18.3803L16.8535 16.2519ZM13.4442 17.7847C13.1922 17.7847 12.9847 17.5772 12.9847 17.3252L12.9847 16.4358H16.8237V17.3252C16.8237 17.5772 16.6162 17.7847 16.3642 17.7847H13.4442Z" fill="#1D1D1D"/>
</svg>
