<svg width="25" height="25" viewBox="0 0 25 25" fill="none" xmlns="http://www.w3.org/2000/svg">
<path d="M12.8365 4C10.4785 4 8.56152 5.917 8.56152 8.275C8.56152 10.588 10.3705 12.46 12.7285 12.541C12.8005 12.532 12.8725 12.532 12.9265 12.541C12.9445 12.541 12.9535 12.541 12.9715 12.541C12.9805 12.541 12.9805 12.541 12.9895 12.541C15.2935 12.46 17.1025 10.588 17.1115 8.275C17.1115 5.917 15.1945 4 12.8365 4Z" fill="#AAAAAA"/>
<path d="M17.408 14.9342C14.897 13.2602 10.802 13.2602 8.273 14.9342C7.13 15.6992 6.5 16.7342 6.5 17.8412C6.5 18.9482 7.13 19.9742 8.264 20.7302C9.524 21.5762 11.18 21.9992 12.836 21.9992C14.492 21.9992 16.148 21.5762 17.408 20.7302C18.542 19.9652 19.172 18.9392 19.172 17.8232C19.163 16.7162 18.542 15.6902 17.408 14.9342Z" fill="#AAAAAA"/>
</svg>
