<svg width="17" height="17" viewBox="0 0 17 17" fill="none" xmlns="http://www.w3.org/2000/svg">
<path d="M12.4389 11.4539C12.1669 11.182 11.726 11.1819 11.454 11.4539C11.182 11.7259 11.182 12.1668 11.454 12.4388L12.4389 11.4539ZM15.204 16.1889C15.4759 16.4608 15.9169 16.4608 16.1889 16.1889C16.4609 15.9169 16.4609 15.4759 16.1889 15.204L15.204 16.1889ZM11.9464 11.9464L11.454 12.4388L15.204 16.1889L15.6964 15.6964L16.1889 15.204L12.4389 11.4539L11.9464 11.9464ZM7.12501 13.5535V12.8571C3.95923 12.8571 1.39286 10.2907 1.39286 7.12497H0.69643H1.66893e-06C1.66893e-06 11.06 3.18998 14.25 7.12501 14.25V13.5535ZM13.5536 7.12497H12.8572C12.8572 10.2907 10.2908 12.8571 7.12501 12.8571V13.5535V14.25C11.06 14.25 14.25 11.06 14.25 7.12497H13.5536ZM7.12501 0.696411V1.39284C10.2908 1.39284 12.8572 3.9592 12.8572 7.12497H13.5536H14.25C14.25 3.18995 11.06 -1.74046e-05 7.12501 -1.74046e-05V0.696411ZM7.12501 0.696411V-1.74046e-05C3.18998 -1.74046e-05 1.66893e-06 3.18995 1.66893e-06 7.12497H0.69643H1.39286C1.39286 3.9592 3.95923 1.39284 7.12501 1.39284V0.696411Z" fill="#828282"/>
</svg>
